{
  "accessors": [
    {
      "bufferView": 2,
      "componentType": 5126,
      "count": 3899,
      "max": [
        1.1518491506576538,
        3.3149077892303467,
        0.9308788776397705
      ],
      "min": [
        -1.1518491506576538,
        -0.9576987028121948,
        -1.5837790966033936
      ],
      "type": "VEC3"
    },
    {
      "bufferView": 2,
      "byteOffset": 46788,
      "componentType": 5126,
      "count": 3899,
      "max": [
        0.999924898147583,
        0.999932050704956,
        0.9999967813491821
      ],
      "min": [
        -0.999924898147583,
        -0.999988317489624,
        -0.9999986886978149
      ],
      "type": "VEC3"
    },
    {
      "bufferView": 1,
      "componentType": 5126,
      "count": 3899,
      "max": [
        0.9915233254432678,
        0.9907307028770447
      ],
      "min": [
        0.00597956869751215,
        0.0001983796537388116
      ],
      "type": "VEC2"
    },
    {
      "bufferView": 0,
      "componentType": 5125,
      "count": 16236,
      "type": "SCALAR"
    },
    {
      "bufferView": 2,
      "byteOffset": 93576,
      "componentType": 5126,
      "count": 513,
      "max": [
        1.000000238418579,
        1.0,
        0.9366087317466736
      ],
      "min": [
        -0.9999998211860657,
        -1.0000003576278687,
        -0.5581573247909546
      ],
      "type": "VEC3"
    },
    {
      "bufferView": 2,
      "byteOffset": 99732,
      "componentType": 5126,
      "count": 513,
      "max": [
        1.0,
        1.0,
        1.0
      ],
      "min": [
        -1.0,
        -1.0,
        -0.5355605483055115
      ],
      "type": "VEC3"
    },
    {
      "bufferView": 1,
      "byteOffset": 31192,
      "componentType": 5126,
      "count": 513,
      "max": [
        0.20081782341003418,
        0.802874743938446
      ],
      "min": [
        0.013145048171281815,
        0.42832472920417786
      ],
      "type": "VEC2"
    },
    {
      "bufferView": 0,
      "byteOffset": 64944,
      "componentType": 5125,
      "count": 2592,
      "type": "SCALAR"
    },
    {
      "bufferView": 2,
      "byteOffset": 105888,
      "componentType": 5126,
      "count": 126,
      "max": [
        0.7709382772445679,
        0.16882941126823425,
        1.2155660390853882
      ],
      "min": [
        -0.7709381580352783,
        -1.7045903205871582,
        -2.195709228515625
      ],
      "type": "VEC3"
    },
    {
      "bufferView": 2,
      "byteOffset": 107400,
      "componentType": 5126,
      "count": 126,
      "max": [
        0.9924445152282715,
        0.9842915534973145,
        0.9866656064987183
      ],
      "min": [
        -0.9924445152282715,
        -0.9999973773956299,
        -0.8295440077781677
      ],
      "type": "VEC3"
    },
    {
      "bufferView": 1,
      "byteOffset": 35296,
      "componentType": 5126,
      "count": 126,
      "max": [
        0.5706735849380493,
        0.49539870023727417
      ],
      "min": [
        0.40901103615760803,
        0.335865318775177
      ],
      "type": "VEC2"
    },
    {
      "bufferView": 0,
      "byteOffset": 75312,
      "componentType": 5125,
      "count": 624,
      "type": "SCALAR"
    },
    {
      "bufferView": 2,
      "byteOffset": 108912,
      "componentType": 5126,
      "count": 513,
      "max": [
        1.000000238418579,
        1.0,
        0.9366087317466736
      ],
      "min": [
        -0.9999998211860657,
        -1.0000003576278687,
        -0.5581573247909546
      ],
      "type": "VEC3"
    },
    {
      "bufferView": 2,
      "byteOffset": 115068,
      "componentType": 5126,
      "count": 513,
      "max": [
        1.0,
        1.0,
        1.0
      ],
      "min": [
        -1.0,
        -1.0,
        -0.5355605483055115
      ],
      "type": "VEC3"
    },
    {
      "bufferView": 1,
      "byteOffset": 36304,
      "componentType": 5126,
      "count": 513,
      "max": [
        0.20081782341003418,
        0.802874743938446
      ],
      "min": [
        0.013145048171281815,
        0.42832472920417786
      ],
      "type": "VEC2"
    },
    {
      "bufferView": 0,
      "byteOffset": 77808,
      "componentType": 5125,
      "count": 2592,
      "type": "SCALAR"
    },
    {
      "bufferView": 2,
      "byteOffset": 121224,
      "componentType": 5126,
      "count": 260,
      "max": [
        0.8032321929931641,
        0.9412757754325867,
        -9.559822082519531
      ],
      "min": [
        -1.0461695194244385,
        -0.9093612432479858,
        -9.627549171447754
      ],
      "type": "VEC3"
    },
    {
      "bufferView": 2,
      "byteOffset": 124344,
      "componentType": 5126,
      "count": 260,
      "max": [
        0.10929854959249496,
        0.1093711107969284,
        -0.9940000176429749
      ],
      "min": [
        -0.10930506885051727,
        -0.10937223583459854,
        -1.0
      ],
      "type": "VEC3"
    },
    {
      "bufferView": 1,
      "byteOffset": 40408,
      "componentType": 5126,
      "count": 260,
      "max": [
        1.0000009536743164,
        0.046511828899383545
      ],
      "min": [
        0.0,
        2.384185791015625e-07
      ],
      "type": "VEC2"
    },
    {
      "bufferView": 0,
      "byteOffset": 88176,
      "componentType": 5125,
      "count": 774,
      "type": "SCALAR"
    },
    {
      "bufferView": 2,
      "byteOffset": 127464,
      "componentType": 5126,
      "count": 1216,
      "max": [
        3.102304697036743,
        3.233529806137085,
        -8.890695571899414
      ],
      "min": [
        -3.3047869205474854,
        -3.1778383255004883,
        -9.571191787719727
      ],
      "type": "VEC3"
    },
    {
      "bufferView": 2,
      "byteOffset": 142056,
      "componentType": 5126,
      "count": 1216,
      "max": [
        0.9465272426605225,
        0.9471607804298401,
        1.0
      ],
      "min": [
        -0.9465323686599731,
        -0.9471623301506042,
        -1.0
      ],
      "type": "VEC3"
    },
    {
      "bufferView": 1,
      "byteOffset": 42488,
      "componentType": 5126,
      "count": 1216,
      "max": [
        1.0000009536743164,
        0.1162792444229126
      ],
      "min": [
        0.0,
        2.384185791015625e-07
      ],
      "type": "VEC2"
    },
    {
      "bufferView": 0,
      "byteOffset": 91272,
      "componentType": 5125,
      "count": 5160,
      "type": "SCALAR"
    },
    {
      "bufferView": 2,
      "byteOffset": 156648,
      "componentType": 5126,
      "count": 260,
      "max": [
        0.8032321929931641,
        0.9412757754325867,
        -9.559822082519531
      ],
      "min": [
        -1.0461695194244385,
        -0.9093612432479858,
        -9.627549171447754
      ],
      "type": "VEC3"
    },
    {
      "bufferView": 2,
      "byteOffset": 159768,
      "componentType": 5126,
      "count": 260,
      "max": [
        0.10929854959249496,
        0.1093711107969284,
        -0.9940000176429749
      ],
      "min": [
        -0.10930506885051727,
        -0.10937223583459854,
        -1.0
      ],
      "type": "VEC3"
    },
    {
      "bufferView": 1,
      "byteOffset": 52216,
      "componentType": 5126,
      "count": 260,
      "max": [
        1.0000009536743164,
        0.046511828899383545
      ],
      "min": [
        0.0,
        2.384185791015625e-07
      ],
      "type": "VEC2"
    },
    {
      "bufferView": 0,
      "byteOffset": 111912,
      "componentType": 5125,
      "count": 774,
      "type": "SCALAR"
    },
    {
      "bufferView": 2,
      "byteOffset": 162888,
      "componentType": 5126,
      "count": 1216,
      "max": [
        3.102304697036743,
        3.233529806137085,
        -8.890695571899414
      ],
      "min": [
        -3.3047869205474854,
        -3.1778383255004883,
        -9.571191787719727
      ],
      "type": "VEC3"
    },
    {
      "bufferView": 2,
      "byteOffset": 177480,
      "componentType": 5126,
      "count": 1216,
      "max": [
        0.9465272426605225,
        0.9471607804298401,
        1.0
      ],
      "min": [
        -0.9465323686599731,
        -0.9471623301506042,
        -1.0
      ],
      "type": "VEC3"
    },
    {
      "bufferView": 1,
      "byteOffset": 54296,
      "componentType": 5126,
      "count": 1216,
      "max": [
        1.0000009536743164,
        0.1162792444229126
      ],
      "min": [
        0.0,
        2.384185791015625e-07
      ],
      "type": "VEC2"
    },
    {
      "bufferView": 0,
      "byteOffset": 115008,
      "componentType": 5125,
      "count": 5160,
      "type": "SCALAR"
    }
  ],
  "asset": {
    "extras": {
      "author": "ethem (https://sketchfab.com/ethem)",
      "license": "CC-BY-4.0 (http://creativecommons.org/licenses/by/4.0/)",
      "source": "https://sketchfab.com/3d-models/fish-81d01e6ce8f745778e2629bca80724af",
      "title": "Fish"
    },
    "generator": "Sketchfab-12.66.0",
    "version": "2.0"
  },
  "bufferViews": [
    {
      "buffer": 0,
      "byteLength": 135648,
      "name": "floatBufferViews",
      "target": 34963
    },
    {
      "buffer": 0,
      "byteLength": 64024,
      "byteOffset": 135648,
      "byteStride": 8,
      "name": "floatBufferViews",
      "target": 34962
    },
    {
      "buffer": 0,
      "byteLength": 192072,
      "byteOffset": 199672,
      "byteStride": 12,
      "name": "floatBufferViews",
      "target": 34962
    }
  ],
  "buffers": [
    {
      "byteLength": 391744,
      "uri": "scene.bin"
    }
  ],
  "images": [
    {
      "uri": "textures/Fish_01_baseColor.png"
    }
  ],
  "materials": [
    {
      "doubleSided": true,
      "name": "Fish_01",
      "pbrMetallicRoughness": {
        "baseColorFactor": [
          0.9015756768752774,
          0.9015756768752774,
          0.9015756768752774,
          1.0
        ],
        "baseColorTexture": {
          "index": 0
        },
        "metallicFactor": 0.08683247298883072,
        "roughnessFactor": 0.8280451027245256
      }
    },
    {
      "doubleSided": true,
      "emissiveFactor": [
        0.407843,
        0.407843,
        0.407843
      ],
      "name": "Flash_Point",
      "pbrMetallicRoughness": {
        "baseColorFactor": [
          0.9258963695286042,
          0.9258963695286042,
          0.9258963695286042,
          1.0
        ],
        "metallicFactor": 0.0,
        "roughnessFactor": 0.7885257473118872
      }
    },
    {
      "alphaMode": "BLEND",
      "doubleSided": true,
      "name": "Eye_Lens",
      "pbrMetallicRoughness": {
        "baseColorFactor": [
          0.137255,
          0.137255,
          0.137255,
          0.0
        ],
        "metallicFactor": 0.0,
        "roughnessFactor": 0.761163197927877
      }
    }
  ],
  "meshes": [
    {
      "name": "Fish_Body_Fish_01_0",
      "primitives": [
        {
          "attributes": {
            "NORMAL": 1,
            "POSITION": 0,
            "TEXCOORD_0": 2
          },
          "indices": 3,
          "material": 0,
          "mode": 4
        }
      ]
    },
    {
      "name": "Left_Eye_Fish_01_0",
      "primitives": [
        {
          "attributes": {
            "NORMAL": 5,
            "POSITION": 4,
            "TEXCOORD_0": 6
          },
          "indices": 7,
          "material": 0,
          "mode": 4
        }
      ]
    },
    {
      "name": "tongue_Fish_01_0",
      "primitives": [
        {
          "attributes": {
            "NORMAL": 9,
            "POSITION": 8,
            "TEXCOORD_0": 10
          },
          "indices": 11,
          "material": 0,
          "mode": 4
        }
      ]
    },
    {
      "name": "Left_Eye.002_Fish_01_0",
      "primitives": [
        {
          "attributes": {
            "NORMAL": 13,
            "POSITION": 12,
            "TEXCOORD_0": 14
          },
          "indices": 15,
          "material": 0,
          "mode": 4
        }
      ]
    },
    {
      "name": "L_eye_Flashpoint_Flash_Point_0",
      "primitives": [
        {
          "attributes": {
            "NORMAL": 17,
            "POSITION": 16,
            "TEXCOORD_0": 18
          },
          "indices": 19,
          "material": 1,
          "mode": 4
        }
      ]
    },
    {
      "name": "L_eye_lens_Eye_Lens_0",
      "primitives": [
        {
          "attributes": {
            "NORMAL": 21,
            "POSITION": 20,
            "TEXCOORD_0": 22
          },
          "indices": 23,
          "material": 2,
          "mode": 4
        }
      ]
    },
    {
      "name": "R_eye_flashpoint_Flash_Point_0",
      "primitives": [
        {
          "attributes": {
            "NORMAL": 25,
            "POSITION": 24,
            "TEXCOORD_0": 26
          },
          "indices": 27,
          "material": 1,
          "mode": 4
        }
      ]
    },
    {
      "name": "R_eye_lens_Eye_Lens_0",
      "primitives": [
        {
          "attributes": {
            "NORMAL": 29,
            "POSITION": 28,
            "TEXCOORD_0": 30
          },
          "indices": 31,
          "material": 2,
          "mode": 4
        }
      ]
    }
  ],
  "nodes": [
    {
      "children": [
        1
      ],
      "matrix": [
        1.0,
        0.0,
        0.0,
        0.0,
        0.0,
        2.220446049250313e-16,
        -1.0,
        0.0,
        0.0,
        1.0,
        2.220446049250313e-16,
        0.0,
        0.0,
        0.0,
        0.0,
        1.0
      ],
      "name": "Sketchfab_model"
    },
    {
      "children": [
        2
      ],
      "matrix": [
        1.0,
        0.0,
        0.0,
        0.0,
        0.0,
        0.0,
        1.0,
        0.0,
        0.0,
        -1.0,
        0.0,
        0.0,
        0.0,
        0.0,
        0.0,
        1.0
      ],
      "name": "Fish_Model.fbx"
    },
    {
      "children": [
        3,
        5,
        7,
        9,
        11,
        13,
        15,
        17
      ],
      "name": "RootNode"
    },
    {
      "children": [
        4
      ],
      "matrix": [
        303.90814208984375,
        0.0,
        0.0,
        0.0,
        -0.0,
        -5.712297932784648e-05,
        -350.61834716796415,
        0.0,
        0.0,
        350.61834716796415,
        -5.712297932784648e-05,
        0.0,
        -0.09536147117614746,
        6.92896842956543,
        6.92896842956543,
        1.0
      ],
      "name": "Fish_Body"
    },
    {
      "mesh": 0,
      "name": "Fish_Body_Fish_01_0"
    },
    {
      "children": [
        6
      ],
      "matrix": [
        -3.278409989401132e-05,
        -116.20211791991726,
        1.9351540023735715e-14,
        0.0,
        -1.893172551876161e-05,
        5.3281233202193525e-12,
        -116.20210266113126,
        0.0,
        116.20211791991571,
        -3.278409991981337e-05,
        -1.893172799828338e-05,
        0.0,
        101.50347900390625,
        77.17850494384766,
        83.07838439941406,
        1.0
      ],
      "name": "Left_Eye"
    },
    {
      "mesh": 1,
      "name": "Left_Eye_Fish_01_0"
    },
    {
      "children": [
        8
      ],
      "matrix": [
        73.72338104248047,
        0.0,
        0.0,
        0.0,
        0.0,
        8.863254550490884,
        -107.4292931465343,
        0.0,
        0.0,
        15.664118908191192,
        1.2923390736927207,
        0.0,
        0.0,
        -111.91758728027344,
        95.6396484375,
        1.0
      ],
      "name": "tongue"
    },
    {
      "mesh": 2,
      "name": "tongue_Fish_01_0"
    },
    {
      "children": [
        10
      ],
      "matrix": [
        5.0793561025554395e-06,
        -116.20211791992178,
        1.2901026682490477e-14,
        -0.0,
        -5.0793554420230714e-06,
        -2.322184497916425e-13,
        -116.20210266113271,
        -0.0,
        -116.20211791992166,
        -5.079356109005953e-06,
        5.0793561025554395e-06,
        -0.0,
        -98.19483947753906,
        77.17850494384766,
        83.07838439941406,
        1.0
      ],
      "name": "Left_Eye.002"
    },
    {
      "mesh": 3,
      "name": "Left_Eye.002_Fish_01_0"
    },
    {
      "children": [
        12
      ],
      "matrix": [
        -3.2029612159160137,
        -0.3651616333883621,
        11.906803454698416,
        0.0,
        -1.8826254432555365,
        12.190258138194663,
        -0.13257644771589303,
        0.0,
        -11.762696647440045,
        -1.8516243156557268,
        -3.220982311648784,
        0.0,
        101.50347900390625,
        77.17850494384766,
        83.07838439941406,
        1.0
      ],
      "name": "L_eye_Flashpoint"
    },
    {
      "mesh": 4,
      "name": "L_eye_Flashpoint_Flash_Point_0"
    },
    {
      "children": [
        14
      ],
      "matrix": [
        9.754332252912034e-06,
        0.0,
        12.335488319393116,
        0.0,
        -6.421222004934052e-06,
        12.335488319395301,
        5.077604654503044e-12,
        0.0,
        -12.335488319391445,
        -6.4212220049360614e-06,
        9.754332252912034e-06,
        0.0,
        101.50347900390625,
        77.17850494384766,
        83.07838439941406,
        1.0
      ],
      "name": "L_eye_lens"
    },
    {
      "mesh": 5,
      "name": "L_eye_lens_Eye_Lens_0"
    },
    {
      "children": [
        16
      ],
      "matrix": [
        3.2029515262006703,
        -0.3651622514817031,
        11.90680604229702,
        -0.0,
        1.8826057300317276,
        12.19026126519763,
        -0.13256885523138767,
        -0.0,
        11.762702441021986,
        -1.8516036068637924,
        -3.2209730587205456,
        -0.0,
        -98.1948471069336,
        77.17850494384766,
        83.07838439941406,
        1.0
      ],
      "name": "R_eye_flashpoint"
    },
    {
      "mesh": 6,
      "name": "R_eye_flashpoint_Flash_Point_0"
    },
    {
      "children": [
        18
      ],
      "matrix": [
        -2.4018082547171228e-06,
        -3.265176570937442e-22,
        12.335488319396736,
        -0.0,
        -4.803616502727608e-06,
        12.335488319396037,
        -9.352986654328518e-13,
        -0.0,
        12.335488319395804,
        4.803616502727698e-06,
        2.4018082533476086e-06,
        -0.0,
        -98.1948471069336,
        77.17850494384766,
        83.07838439941406,
        1.0
      ],
      "name": "R_eye_lens"
    },
    {
      "mesh": 7,
      "name": "R_eye_lens_Eye_Lens_0"
    }
  ],
  "samplers": [
    {
      "magFilter": 9729,
      "minFilter": 9987,
      "wrapS": 10497,
      "wrapT": 10497
    }
  ],
  "scene": 0,
  "scenes": [
    {
      "name": "Sketchfab_Scene",
      "nodes": [
        0
      ]
    }
  ],
  "textures": [
    {
      "sampler": 0,
      "source": 0
    }
  ]
}
